<svg id="Layer_1" xmlns="http://www.w3.org/2000/svg" xmlns:xlink="http://www.w3.org/1999/xlink" viewBox="0 0 590 65">
  <style>
    .st0{clip-path:url(#SVGID_2_)}.st1{fill:#fff}.st2{clip-path:url(#SVGID_4_)}.st3{clip-path:url(#SVGID_6_)}.st4{clip-path:url(#SVGID_8_)}
  </style>
  <path d="M.2.2h590v65H.2z"/>
  <title>
    SocialistWorker.org
  </title>
  <defs>
    <path id="SVGID_1_" d="M2.5 3.8h585v59.7H2.5z"/>
  </defs>
  <clipPath id="SVGID_2_">
    <use xlink:href="#SVGID_1_" overflow="visible"/>
  </clipPath>
  <g class="st0">
    <path class="st1" d="M18 54.8c-5.4 0-10.7-1.1-15.5-3.4l1.7-10.7c4.3 2.1 8.9 3.3 13.7 3.3 4.4 0 6-1.2 6-3.5 0-5.7-21.4-3.3-21.4-19C2.5 13.3 8 6.6 21.1 6.6c4.8 0 9.6.8 14.2 2.4l-1.6 10.5c-3.8-1.1-7.8-1.7-11.8-1.8-5.3 0-6.3 1.4-6.3 3.2 0 5.8 21.3 3.2 21.3 18.9 0 9.2-7.1 15-18.9 15m40.1-9.3c4.3 0 5.8-2 5.8-10.4s-1.5-10.4-5.8-10.4-5.8 1.9-5.8 10.4 1.6 10.4 5.8 10.4m0 9.3c-13 0-18.8-5.8-18.8-19.7s5.8-19.9 18.8-19.9 18.7 6 18.7 19.9-5.6 19.7-18.7 19.7m48.8-28.2c-2-.6-4-.9-6-.9-6.7 0-8.6 2.5-8.6 9.6 0 6.8 3.1 9.7 8.4 9.7 2.2 0 4.4-.4 6.5-1.1l.8 8.9c-2.3 1.2-5.7 2-10.1 2-12.1 0-18.6-6.6-18.6-19.5 0-12.5 5.6-19.8 18.9-19.8 3.2 0 6.3.5 9.4 1.5l-.7 9.6zm4.9 27.3V16.3l12.8-.6v38.2h-12.8zm6.4-40.7c-4.7 0-6.8-1.2-6.8-4.7 0-3 2.1-4.7 6.8-4.7s6.8 1.6 6.8 4.7-2.1 4.7-6.8 4.7m30.8 25c-1.4-.4-2.8-.6-4.3-.6-3.3 0-4.9 1.3-4.9 4s1.6 3.8 4.1 3.8 5-1.4 5-3.5v-3.7zm1.9 12.6c-2.8 2.5-6.5 3.8-10.3 3.7-7.7 0-12.4-4.2-12.4-12.7 0-7 5.3-12 14.1-12 2.3 0 4.5.2 6.7.8v-1.4c0-2.8-1.7-4.4-6.6-4.4-3.7-.1-7.4.6-10.8 1.9l-1-9.1c4.5-1.7 9.3-2.6 14.1-2.5 12.5 0 16.6 5.1 16.6 15.6v23h-9.6l-.8-2.9z"/>
  </g>
  <path class="st1" d="M166.4 53.9v-48l12.6-.6v48.6h-12.6z"/>
  <defs>
    <path id="SVGID_3_" d="M2.5 3.8h585v59.7H2.5z"/>
  </defs>
  <clipPath id="SVGID_4_">
    <use xlink:href="#SVGID_3_" overflow="visible"/>
  </clipPath>
  <g class="st2">
    <path class="st1" d="M185 53.9V16.3l12.8-.6v38.2H185zm6.4-40.8c-4.7 0-6.8-1.2-6.8-4.7 0-3 2.1-4.7 6.8-4.7s6.8 1.6 6.8 4.7-2.1 4.7-6.8 4.7m23.4 41.6c-4.3.1-8.6-.7-12.6-2.4l1.2-9.4c3.6 1.6 7.4 2.4 11.3 2.4 3 0 4.4-1.1 4.4-2.6 0-4.8-17.3-1.5-17.3-15.1 0-7 5-12.3 15.8-12.3 3.9 0 7.9.7 11.6 2.1l-.9 9.3c-3.5-1.2-7.2-1.8-10.8-1.8-2.5 0-3.6.8-3.6 2.2 0 4.5 16.9 1.5 16.9 14.5-.2 7.8-4.7 13-16 13.1"/>
  </g>
  <path class="st1" d="M297.4 7.4l5.6 28.8.9 5h.2l.7-5 5-28.8h13.4L312 53.9h-16.1l-5.1-28.1-.8-5h-.2l-.8 5-5.1 28.1h-16.2L256.4 7.4h14.1l4.9 29 .8 5h.2l.8-5 5.6-29h14.6z"/>
  <g>
    <defs>
      <path id="SVGID_5_" d="M2.5 3.8h585v59.7H2.5z"/>
    </defs>
    <clipPath id="SVGID_6_">
      <use xlink:href="#SVGID_5_" overflow="visible"/>
    </clipPath>
    <g class="st3">
      <path class="st1" d="M252.1 45.5c-2.9 0-4.1-1.1-4.1-3.5V24.6h7.8l-2.1-8.6H248V7.1l-9.9.8-2 8.1h-4.4v8.6h3.7v17.8c0 7.5 4.1 12.2 12.8 12.2 2.6.1 5.1-.3 7.5-1.2l-.6-8.3c-.9.2-1.9.4-3 .4m87.4 0c4.3 0 5.8-2 5.8-10.4s-1.5-10.4-5.8-10.4-5.8 1.9-5.8 10.4 1.5 10.4 5.8 10.4m-.1 9.3c-13 0-18.8-5.8-18.8-19.7s5.8-19.9 18.8-19.9 18.7 6 18.7 19.9-5.6 19.7-18.7 19.7m22.4-.9V16.3l9.9-.4 1.1 5.5h.2c2-3.7 5.9-6 10.2-6 1.5 0 3 .2 4.5.6l-.7 11.3c-1.5-.4-3.1-.6-4.6-.6-4.8 0-8 3-8 8.4v19h-12.6z"/>
    </g>
  </g>
  <path class="st1" d="M403 38.4V54h-12.5V6l12.5-.6V29"/>
  <path class="st1" d="M401.1 29h4.4l6.4-13.1h13.6l-9.4 17.3 9.7 20.7H412l-6.5-15.6h-4.4V29z"/>
  <g>
    <defs>
      <path id="SVGID_7_" d="M2.5 3.8h585v59.7H2.5z"/>
    </defs>
    <clipPath id="SVGID_8_">
      <use xlink:href="#SVGID_7_" overflow="visible"/>
    </clipPath>
    <g class="st4">
      <path class="st1" d="M448.1 30.8c-.1-4.4-2-6-5.4-6-3.8 0-5.1 1.4-5.5 6h10.9zm-23.6 3.9c0-12.1 5.7-19.4 18.2-19.4 10.6 0 16.9 5.7 16.9 17.7 0 1.8-.1 3.6-.3 5.3h-21.7c.5 4.6 3.4 6.3 9.2 6.3 3.5 0 7.1-.5 10.5-1.5l1.3 9.2c-4.3 1.6-8.8 2.4-13.4 2.3-14.2 0-20.7-7.1-20.7-19.9m39 19.2V16.3l9.9-.4 1.1 5.5h.2c2-3.7 5.9-6 10.2-6 1.5 0 3 .2 4.5.6l-.7 11.3c-1.5-.4-3.1-.6-4.6-.6-4.8 0-8 3-8 8.4v19h-12.6zm25.9.7c-2.1 0-3.1-.8-3.1-2.9 0-1.9 1-2.9 3.1-2.9s3 1 3 2.9-1 2.9-3 2.9m24.2-3.1c8.6 0 11.9-4.3 11.9-15.8S522.2 20 513.6 20s-12.1 4.3-12.1 15.7 3.4 15.8 12.1 15.8m0 3.2c-11.2 0-16.2-5.3-16.2-19.1s5.1-19 16.2-19 16 5.4 16 19-4.8 19.1-16 19.1m21.8-.8V17.5l3.2-.2.1 4.1.1 5h.1c2.2-5.7 6.7-9.6 12.5-9.6 1.2 0 2.4.1 3.6.4l-.3 3.9c-1.1-.4-2.3-.5-3.5-.5-6.5 0-11.9 5.7-11.9 14.6v18.7h-3.9zM562 27.5c0 6.1 3.9 7.5 9 7.5 7 0 9.2-2.6 9.2-7.5 0-5.6-2.8-7.6-9.1-7.6-6.7 0-9.1 2.5-9.1 7.6m2.8 19.5c-2.7 1.7-4.2 4.2-4.2 6.4 0 4.3 3.1 7 10.6 7 9.5 0 11.9-2.8 11.9-6.9 0-3.2-1.7-4.9-9.1-5.5l-9.2-1zm.7-9.7c-2.6.6-4 1.8-4 3.3s1.2 2.6 4.3 2.9l8.8.9c9.4.9 12.2 3.7 12.2 8.5 0 6.5-3.9 10.6-15.5 10.6-10.1 0-14.3-3.8-14.3-9.7.1-3 1.7-5.8 4.2-7.5-2.1-.7-3.5-2.7-3.5-4.9s1.8-4.2 4.9-5.3c-2.7-1.4-4.7-4.2-4.7-8.7 0-6.9 3.6-10.7 12.9-10.7 3.3 0 6.8.6 9.3 2.6l6.2-2.7.9 1.9-4.9 3.2c.9 1.8 1.4 3.7 1.4 5.7 0 6.9-3.2 10.6-12.8 10.6-1.7 0-3.6-.2-5.4-.7"/>
    </g>
  </g>
</svg>
