<svg id="Layer_1" data-name="Layer 1" xmlns="http://www.w3.org/2000/svg" viewBox="0 0 585 59.67">
  <title>Socialist Worker</title>
  <defs>
    <style>
      .cls-1{fill:none}.cls-2{clip-path:url(#clip-path)}.cls-3{fill:#fff}
    </style>
    <clipPath id="clip-path">
      <path id="SVGID" class="cls-1" d="M0 0h585v59.67H0z"/>
    </clipPath>
  </defs>
  <title>
    logo
  </title>
  <g class="cls-2">
    <path class="cls-3" d="M15.51 51A35.61 35.61 0 0 1 0 47.56l1.69-10.74a31.53 31.53 0 0 0 13.69 3.35c4.35 0 6-1.24 6-3.54 0-5.71-21.35-3.29-21.35-19 0-8.2 5.51-14.9 18.56-14.9a42.58 42.58 0 0 1 14.18 2.36l-1.56 10.49a45.37 45.37 0 0 0-11.81-1.8c-5.26 0-6.29 1.37-6.29 3.17 0 5.77 21.28 3.17 21.28 18.87 0 9.32-7.14 15.18-18.88 15.18M55.63 41.66c4.28 0 5.77-2 5.77-10.37s-1.49-10.37-5.77-10.37-5.84 1.86-5.84 10.37 1.56 10.37 5.84 10.37M55.56 51c-13 0-18.75-5.77-18.75-19.68s5.84-19.87 18.82-19.87 18.69 6 18.69 19.87S68.67 51 55.56 51M104.37 22.72a24.92 24.92 0 0 0-6-.93c-6.68 0-8.63 2.48-8.63 9.56 0 6.83 3.11 9.69 8.37 9.69a19.1 19.1 0 0 0 6.49-1.12l.84 8.94c-2.27 1.24-5.71 2-10.06 2-12.13 0-18.62-6.58-18.62-19.5 0-12.48 5.64-19.81 18.88-19.81A30.94 30.94 0 0 1 105 13zM109.25 50.11V12.48l12.75-.56v38.19zm6.42-40.79c-4.67 0-6.81-1.24-6.81-4.66 0-3 2.14-4.66 6.81-4.66s6.75 1.61 6.75 4.66-2 4.66-6.75 4.66M146.54 34.4a15.93 15.93 0 0 0-4.28-.56c-3.31 0-4.87 1.3-4.87 4s1.62 3.85 4.15 3.85 5-1.43 5-3.48zm1.89 12.6a15 15 0 0 1-10.32 3.73c-7.72 0-12.39-4.22-12.39-12.73 0-7 5.26-12 14.15-12a25.71 25.71 0 0 1 6.68.81v-1.35c0-2.79-1.69-4.35-6.55-4.35A28.91 28.91 0 0 0 129.16 23l-1-9.06a37.14 37.14 0 0 1 14.15-2.48c12.52 0 16.61 5.15 16.61 15.65v23h-9.6z"/>
  </g>
  <path class="cls-3" d="M163.95 50.11v-48l12.65-.56v48.56h-12.65z"/>
  <g class="cls-2">
    <path class="cls-3" d="M182.47 50.11V12.48l12.78-.56v38.19zm6.43-40.8c-4.67 0-6.81-1.24-6.81-4.66 0-3 2.14-4.66 6.81-4.66s6.75 1.61 6.75 4.66-2 4.66-6.75 4.66M212.27 50.85a30 30 0 0 1-12.59-2.36l1.23-9.44a28.08 28.08 0 0 0 11.29 2.42c3 0 4.35-1.06 4.35-2.61 0-4.78-17.32-1.55-17.32-15.09 0-7 5-12.29 15.77-12.29a32.55 32.55 0 0 1 11.55 2.11l-.91 9.31a35.11 35.11 0 0 0-10.84-1.8c-2.47 0-3.63.81-3.63 2.17 0 4.53 16.94 1.55 16.94 14.53 0 7.76-4.54 13-15.83 13"/>
  </g>
  <path class="cls-3" d="M294.94 3.54l5.58 28.81.91 4.96h.19l.72-4.96 4.99-28.81h13.43l-11.29 46.57h-16.15l-5.07-28.07-.77-5.03h-.2l-.84 5.03-5.06 28.07h-16.16L253.93 3.54h14.14l4.87 28.99.78 4.97h.2l.84-4.97 5.58-28.99h14.6z"/>
  <g class="cls-2">
    <path class="cls-3" d="M249.64 41.66c-2.86 0-4.09-1.06-4.09-3.48V20.74h7.81l-2.09-8.63h-5.72V3.23l-9.86.77-2 8.07h-4.41v8.63H233v17.8c0 7.45 4.09 12.23 12.78 12.23a20.37 20.37 0 0 0 7.53-1.18l-.65-8.32a11.22 11.22 0 0 1-3 .43M337 41.66c4.28 0 5.77-2 5.77-10.37s-1.49-10.37-5.77-10.37-5.84 1.86-5.84 10.37 1.56 10.37 5.84 10.37m-.07 9.34c-13 0-18.75-5.77-18.75-19.68S324 11.42 337 11.42s18.69 6 18.69 19.87S350 51 336.93 51M359.25 50.11V12.42l9.93-.43 1.1 5.46h.19a11.46 11.46 0 0 1 10.19-6 13.9 13.9 0 0 1 4.48.62l-.71 11.3a17.14 17.14 0 0 0-4.61-.62c-4.8 0-8 3-8 8.38v18.98z"/>
  </g>
  <path class="cls-3" d="M400.53 34.52v15.59h-12.46v-48l12.46-.56v23.66"/>
  <path class="cls-3" d="M398.64 25.21h4.41l6.43-13.1h13.62l-9.41 17.26 9.67 20.74h-13.88l-6.49-15.59h-4.35v-9.31z"/>
  <g class="cls-2">
    <path class="cls-3" d="M445.6 27c-.13-4.35-1.95-6-5.39-6-3.76 0-5.13 1.43-5.52 6zM422 30.86c0-12.11 5.71-19.37 18.17-19.37 10.58 0 16.87 5.71 16.87 17.7a46.34 46.34 0 0 1-.32 5.34H435c.52 4.59 3.37 6.33 9.21 6.33a34.88 34.88 0 0 0 10.45-1.55l1.34 9.18a36.83 36.83 0 0 1-13.37 2.3c-14.15 0-20.63-7.08-20.63-19.93M461 50.11V12.42l9.93-.43 1.1 5.46h.19a11.46 11.46 0 0 1 10.19-6 13.9 13.9 0 0 1 4.48.62l-.71 11.3a17.14 17.14 0 0 0-4.61-.62c-4.8 0-8 3-8 8.38v18.98zM486.9 50.73c-2.08 0-3.11-.81-3.11-2.92 0-1.86 1-2.86 3.11-2.86s3 1 3 2.86-1 2.92-3 2.92M511.09 47.62c8.57 0 11.87-4.35 11.87-15.77s-3.31-15.65-11.87-15.65S499 20.49 499 31.85s3.44 15.77 12.07 15.77m0 3.29c-11.16 0-16.16-5.34-16.16-19.06s5.06-19 16.16-19 16 5.4 16 19-4.74 19.06-16 19.06M532.9 50.11V13.66l3.18-.25.13 4.1.13 5h.13c2.21-5.71 6.68-9.56 12.46-9.56a13.53 13.53 0 0 1 3.63.43l-.32 3.91a10.86 10.86 0 0 0-3.5-.5c-6.49 0-11.94 5.71-11.94 14.59v18.73zM559.5 23.66c0 6.15 3.89 7.51 9 7.51 7 0 9.15-2.61 9.15-7.51 0-5.65-2.79-7.64-9.09-7.64-6.62 0-9.08 2.55-9.08 7.64m2.86 19.5c-2.73 1.68-4.15 4.16-4.15 6.39 0 4.35 3.12 7 10.64 7 9.47 0 11.94-2.79 11.94-6.89 0-3.17-1.69-4.9-9.08-5.53zm.71-9.69c-2.6.56-4 1.8-4 3.35s1.17 2.61 4.35 2.92l8.83.87c9.41.93 12.2 3.66 12.2 8.51 0 6.46-3.89 10.56-15.51 10.56-10.06 0-14.28-3.85-14.28-9.69a9.43 9.43 0 0 1 4.22-7.51 5.21 5.21 0 0 1-3.5-4.9c0-2.24 1.75-4.22 4.93-5.28-2.73-1.43-4.67-4.16-4.67-8.69 0-6.89 3.63-10.74 12.91-10.74 3.31 0 6.81.62 9.34 2.55l6.16-2.67.91 1.92-4.93 3.17a11.37 11.37 0 0 1 1.36 5.71c0 6.89-3.25 10.62-12.85 10.62a20.65 20.65 0 0 1-5.51-.68"/>
  </g>
</svg>
