<svg xmlns="http://www.w3.org/2000/svg" viewBox="0 0 48 48"><defs><style>.cls-1{fill:#ff000;}.cls-2{fill:#fff;}.cls-3{fill:none;stroke:#fff;stroke-miterlimit:10;stroke-width:2px;}</style></defs><title>print</title><g id="Layer_2" data-name="Layer 2"><g id="Layer_1-2" data-name="Layer 1"><circle class="cls-1" cx="24" cy="24" r="24"/><rect class="cls-2" x="13.35" y="10.06" width="21.29" height="16.46"/><path class="cls-3" d="M10.58,26.52H37.42a2,2,0,0,1,2,2v9.24a0,0,0,0,1,0,0H8.58a0,0,0,0,1,0,0V28.52A2,2,0,0,1,10.58,26.52Z"/><rect class="cls-1" x="21.54" y="13.45" width="10.25" height="0.89"/><rect class="cls-1" x="21.54" y="15.27" width="10.25" height="0.89"/><rect class="cls-1" x="21.54" y="17.08" width="4.18" height="0.89"/><rect class="cls-1" x="16.21" y="19.48" width="15.58" height="0.89"/><rect class="cls-1" x="16.21" y="21.3" width="15.58" height="0.89"/><rect class="cls-1" x="16.21" y="23.11" width="15.58" height="0.89"/><rect class="cls-1" x="16.21" y="13.45" width="4.52" height="4.52"/></g></g></svg>