<?xml version="1.0" standalone="no"?>
<!DOCTYPE svg PUBLIC "-//W3C//DTD SVG 20010904//EN"
 "http://www.w3.org/TR/2001/REC-SVG-20010904/DTD/svg10.dtd">
<svg version="1.0" xmlns="http://www.w3.org/2000/svg"
 width="992.000000pt" height="992.000000pt" viewBox="0 0 992.000000 992.000000"
 preserveAspectRatio="xMidYMid meet">
<metadata>
Created by potrace 1.11, written by Peter Selinger 2001-2013
</metadata>
<g transform="translate(0.000000,992.000000) scale(0.100000,-0.100000)"
fill="#000000" stroke="none">
<path d="M1669 7496 c-2 -2 -35 -7 -74 -10 -83 -7 -140 -14 -177 -22 -15 -3
-41 -7 -58 -9 -18 -3 -41 -7 -51 -10 -11 -4 -32 -8 -47 -10 -95 -14 -323 -91
-432 -146 -25 -13 -47 -23 -50 -24 -8 -1 -49 -27 -144 -90 -194 -130 -357
-314 -456 -514 -58 -118 -120 -306 -134 -411 -2 -14 -6 -38 -10 -55 -33 -183
-20 -491 29 -657 8 -27 11 -48 8 -48 -3 0 -1 -6 5 -12 6 -7 10 -16 11 -21 0
-21 47 -131 88 -207 87 -162 233 -325 391 -437 37 -26 69 -51 70 -55 2 -5 9
-8 15 -8 7 0 32 -14 57 -31 70 -48 311 -161 465 -219 77 -28 149 -56 160 -60
11 -5 49 -19 85 -31 36 -12 101 -35 145 -51 44 -16 85 -30 90 -32 34 -7 173
-65 250 -103 114 -55 191 -115 230 -178 25 -41 30 -59 32 -121 1 -40 -4 -90
-10 -111 -12 -43 -53 -107 -88 -140 -37 -34 -138 -79 -204 -93 -33 -6 -77 -15
-98 -20 -63 -14 -484 -3 -567 14 -13 3 -42 8 -65 11 -49 7 -177 33 -196 40 -8
2 -25 7 -39 9 -65 13 -227 61 -285 86 -11 4 -36 13 -55 20 -62 22 -202 81
-289 122 -46 21 -85 38 -87 36 -2 -3 -6 -22 -9 -44 -4 -21 -8 -50 -11 -64 -2
-14 -7 -41 -9 -60 -3 -19 -12 -75 -20 -125 -20 -128 -26 -166 -30 -198 -2 -15
-7 -45 -10 -67 -3 -22 -8 -52 -10 -67 -2 -15 -6 -46 -10 -68 -12 -75 -14 -90
-21 -140 -3 -27 -7 -52 -9 -55 -2 -3 -6 -30 -10 -60 -3 -30 -10 -71 -14 -90
-14 -70 -8 -92 27 -111 18 -10 36 -19 40 -20 4 -1 32 -13 62 -26 187 -84 523
-192 675 -217 17 -3 41 -7 55 -11 14 -3 41 -7 60 -10 19 -3 46 -7 60 -10 27
-5 77 -13 132 -19 232 -29 707 -29 840 0 13 3 37 7 53 9 31 3 83 12 125 20 14
3 35 7 48 10 13 2 32 7 42 10 10 3 29 8 42 11 28 6 39 9 58 17 8 3 33 11 55
17 44 13 47 14 160 61 176 72 332 171 461 290 43 40 62 60 119 124 99 110 180
249 241 412 19 51 37 100 39 110 3 10 9 36 15 58 5 22 13 56 16 75 3 19 8 46
10 60 26 121 25 464 -1 585 -61 289 -163 481 -360 678 -52 52 -225 187 -240
187 -5 0 -18 9 -29 19 -26 24 -222 125 -346 178 -109 46 -371 143 -389 143 -6
0 -19 4 -29 10 -9 5 -71 28 -137 50 -191 65 -305 113 -414 175 -52 29 -130
107 -151 150 -47 97 -24 236 51 307 63 60 156 97 284 114 11 1 20 3 20 4 0 9
354 13 450 6 177 -15 210 -18 215 -21 3 -2 35 -6 70 -9 36 -3 76 -8 90 -11 13
-3 63 -11 110 -20 47 -8 94 -17 105 -19 76 -16 209 -48 253 -60 l53 -14 -5 26
c-4 24 -26 120 -96 417 -11 44 -21 91 -23 105 -3 14 -12 53 -21 88 -9 34 -21
82 -25 105 -5 23 -28 123 -51 222 -24 99 -44 187 -45 195 -12 71 -16 78 -59
85 -22 4 -48 9 -56 11 -39 8 -140 24 -185 29 -27 4 -60 8 -73 10 -13 2 -53 7
-90 11 -37 3 -83 8 -102 11 -46 5 -556 13 -561 9z"/>
<path d="M3180 7406 c-5 -5 -6 -14 -1 -20 4 -6 14 -40 20 -76 12 -59 36 -167
92 -400 11 -47 24 -103 29 -125 5 -22 21 -89 36 -149 14 -61 28 -121 31 -135
2 -14 16 -73 29 -131 14 -58 27 -114 30 -125 4 -20 6 -30 25 -110 5 -22 11
-49 13 -60 4 -22 43 -184 61 -255 0 -3 5 -23 10 -45 4 -22 9 -44 11 -50 6 -25
70 -298 80 -345 3 -14 17 -72 31 -130 31 -131 62 -266 69 -305 3 -16 9 -44 15
-61 5 -17 12 -42 15 -55 2 -13 9 -44 14 -69 6 -25 13 -56 16 -70 3 -14 14 -63
25 -110 11 -47 29 -123 40 -170 17 -74 24 -102 35 -145 1 -5 5 -21 8 -35 3
-14 7 -35 10 -47 4 -13 8 -33 11 -45 10 -50 36 -165 45 -198 16 -60 78 -334
86 -377 1 -6 7 -27 12 -45 6 -18 13 -46 16 -63 3 -16 10 -48 15 -70 8 -32 68
-290 86 -370 2 -11 9 -40 16 -65 6 -25 13 -56 15 -70 6 -29 27 -122 38 -165 1
-5 13 -56 26 -112 l23 -101 816 1 816 2 7 40 c4 22 10 60 13 85 3 25 9 54 12
64 3 11 7 34 9 50 2 17 6 42 9 56 6 29 15 81 20 119 2 14 5 26 6 26 1 0 3 9 4
20 10 73 18 121 20 125 2 3 6 26 10 50 3 25 17 106 30 180 13 74 26 151 29
170 3 19 7 44 10 55 2 11 7 40 11 65 9 52 13 76 20 110 3 14 7 43 11 65 3 22
7 47 9 55 2 8 7 33 10 55 3 23 8 52 10 65 5 26 9 44 25 140 16 91 20 114 24
135 2 11 7 40 11 65 4 25 10 56 12 70 3 14 6 34 8 45 6 38 16 100 21 125 7 34
13 69 18 105 2 17 12 73 21 125 9 52 18 109 21 125 3 17 7 39 10 49 4 10 7 33
8 50 2 17 5 40 9 51 3 11 8 40 11 65 3 25 8 56 11 70 3 14 8 39 10 55 3 17 7
41 10 55 11 56 26 143 31 178 2 20 6 48 9 62 5 24 10 57 20 125 2 17 6 41 10
55 5 23 10 60 20 135 2 17 4 30 5 30 1 0 3 11 5 25 11 76 19 100 30 88 7 -7
11 -31 30 -175 3 -22 14 -90 20 -123 2 -8 6 -35 9 -60 3 -25 8 -56 11 -70 2
-14 7 -41 9 -60 4 -31 30 -185 42 -250 2 -14 7 -41 10 -60 2 -19 8 -48 11 -65
3 -16 7 -39 9 -50 2 -19 8 -50 19 -105 2 -13 7 -42 10 -65 3 -22 8 -53 12 -70
4 -16 7 -37 9 -45 6 -46 15 -98 20 -120 6 -28 13 -69 18 -117 2 -17 6 -35 9
-40 3 -4 8 -30 11 -58 10 -69 17 -114 23 -139 2 -11 6 -31 8 -44 6 -38 27
-166 32 -187 2 -11 6 -33 8 -50 3 -16 7 -41 10 -55 3 -14 12 -68 21 -120 8
-52 29 -171 45 -265 17 -93 32 -181 34 -195 2 -14 8 -47 13 -75 5 -27 10 -57
10 -65 1 -8 6 -40 12 -70 6 -30 13 -68 15 -85 2 -16 9 -55 15 -85 16 -80 20
-103 21 -120 1 -15 13 -81 24 -130 3 -14 7 -43 10 -65 3 -22 12 -77 21 -122
l16 -81 814 0 c746 0 814 1 818 17 10 34 48 197 52 221 3 14 14 63 25 110 11
47 26 112 34 145 42 182 57 246 70 298 8 32 17 71 20 85 5 29 12 59 20 92 12
49 30 128 45 198 6 26 21 92 35 147 13 55 26 111 28 125 3 14 10 43 15 65 6
22 13 51 16 65 3 14 10 43 15 65 18 71 50 209 54 235 3 14 10 45 17 70 7 25
14 52 15 60 3 15 43 188 51 225 3 11 7 31 10 45 3 14 19 81 35 150 16 69 44
184 60 255 17 72 37 158 45 192 20 85 54 233 60 263 3 14 10 43 16 65 5 22 11
47 13 55 2 8 24 105 49 215 26 110 49 209 51 220 2 11 9 38 15 60 5 22 21 92
36 155 14 63 28 124 30 135 3 11 7 31 10 45 3 14 10 43 16 65 11 43 16 66 24
105 3 14 9 41 14 60 5 19 11 46 14 60 3 14 15 63 26 110 32 134 59 253 64 280
3 14 12 52 20 85 8 33 13 62 11 65 -3 4 -1325 6 -1346 1 -4 0 -10 -25 -14 -53
-5 -29 -10 -60 -11 -68 -1 -8 -10 -60 -19 -115 -10 -55 -19 -109 -20 -120 -2
-11 -13 -76 -25 -145 -11 -69 -23 -138 -25 -155 -6 -40 -16 -105 -21 -130 -15
-78 -33 -188 -32 -193 1 -4 -1 -20 -5 -37 -4 -16 -9 -44 -12 -61 -3 -17 -14
-87 -25 -155 -12 -68 -23 -136 -25 -151 -3 -16 -7 -41 -10 -58 -3 -16 -7 -45
-10 -62 -3 -18 -10 -58 -15 -88 -5 -30 -12 -72 -16 -94 -3 -21 -8 -48 -10 -60
-4 -19 -13 -84 -20 -131 -1 -11 -3 -20 -4 -20 -2 0 -7 -26 -14 -77 -3 -24 -10
-68 -16 -98 -5 -30 -12 -68 -14 -85 -3 -16 -26 -156 -52 -310 -25 -154 -48
-293 -50 -310 -3 -16 -7 -41 -10 -55 -3 -14 -8 -41 -10 -60 -2 -19 -9 -57 -14
-85 -6 -27 -13 -72 -15 -100 -5 -47 -10 -77 -20 -135 -2 -14 -7 -47 -10 -75
-3 -27 -8 -64 -11 -80 -2 -17 -6 -49 -9 -70 -2 -22 -4 -40 -5 -40 -1 0 -4 -18
-6 -40 -11 -91 -30 -44 -59 150 -3 17 -7 41 -10 55 -3 14 -8 41 -11 60 -3 19
-9 58 -15 85 -5 28 -18 100 -29 160 -11 61 -22 126 -26 145 -3 19 -8 44 -9 55
-3 17 -10 55 -30 155 -3 14 -7 39 -10 55 -6 39 -14 79 -20 110 -8 41 -15 78
-21 115 -3 19 -10 54 -15 78 -5 23 -12 59 -15 80 -3 20 -7 44 -10 53 -2 9 -7
34 -10 55 -11 69 -12 79 -14 79 -1 0 -3 9 -5 20 -1 11 -5 35 -9 53 -3 17 -8
47 -11 65 -3 17 -8 40 -11 50 -3 10 -8 32 -10 50 -9 56 -23 137 -39 220 -3 15
-7 39 -10 55 -3 15 -10 50 -15 77 -5 28 -11 61 -14 75 -2 14 -7 36 -10 50 -3
14 -8 41 -11 60 -2 19 -7 46 -10 60 -3 14 -9 50 -15 80 -11 60 -17 92 -25 130
-2 14 -7 39 -10 55 -3 17 -7 41 -10 55 -3 14 -7 39 -9 55 -3 17 -10 55 -15 85
-6 30 -13 66 -16 80 -3 14 -9 48 -15 75 -12 60 -18 99 -26 145 -3 19 -7 42
-10 51 -2 9 -7 32 -9 50 -3 19 -7 41 -8 49 -2 8 -7 33 -11 55 -23 123 -38 202
-42 215 -3 13 -93 15 -735 15 -634 0 -732 -2 -739 -15 -4 -8 -11 -37 -15 -63
-3 -27 -8 -57 -10 -68 -6 -30 -56 -297 -59 -316 -2 -10 -6 -34 -9 -53 -14 -82
-17 -96 -22 -120 -3 -14 -7 -38 -10 -55 -3 -16 -10 -52 -15 -80 -18 -95 -32
-174 -44 -245 -4 -19 -11 -55 -16 -80 -5 -25 -14 -72 -20 -105 -5 -33 -12 -71
-15 -85 -3 -14 -7 -36 -10 -50 -5 -35 -13 -76 -25 -135 -6 -27 -12 -63 -14
-80 -2 -16 -9 -55 -15 -85 -6 -30 -12 -66 -15 -80 -2 -14 -7 -36 -10 -50 -3
-14 -8 -38 -10 -55 -3 -16 -10 -55 -16 -85 -5 -30 -13 -68 -16 -85 -27 -151
-37 -204 -40 -225 -3 -14 -7 -36 -9 -50 -9 -43 -13 -66 -19 -101 -3 -19 -10
-59 -16 -89 -7 -30 -14 -68 -16 -85 -3 -16 -10 -55 -16 -85 -6 -30 -12 -62
-13 -70 -2 -8 -5 -31 -9 -50 -12 -65 -45 -245 -51 -275 -2 -16 -7 -41 -10 -54
-2 -12 -6 -42 -9 -66 -3 -23 -9 -62 -15 -86 -5 -24 -9 -51 -9 -59 0 -8 -7 -53
-15 -100 -9 -47 -18 -103 -22 -125 -18 -123 -32 -97 -60 115 -14 101 -21 148
-29 186 -2 12 -7 45 -11 75 -3 30 -9 62 -11 72 -3 10 -7 35 -10 55 -4 43 -11
86 -24 157 -6 28 -12 64 -14 80 -2 17 -6 46 -10 65 -3 19 -8 51 -11 70 -2 19
-7 46 -10 60 -2 13 -7 42 -10 65 -9 60 -35 226 -41 255 -2 14 -7 41 -10 60 -3
19 -9 60 -14 90 -11 68 -20 125 -25 167 -3 18 -12 72 -20 120 -9 49 -18 104
-21 123 -3 19 -7 46 -10 60 -2 14 -9 54 -14 90 -5 36 -12 76 -14 90 -2 14 -10
59 -16 100 -15 99 -19 120 -25 150 -2 13 -7 42 -10 65 -3 22 -11 67 -16 100
-5 33 -12 74 -14 90 -6 41 -26 164 -31 195 -18 96 -23 134 -19 138 2 3 0 12
-4 21 -5 9 -12 36 -15 61 -10 80 -16 124 -26 180 -5 30 -12 69 -14 85 -3 17
-13 75 -22 130 -9 55 -16 108 -16 118 0 9 -5 18 -11 18 -70 7 -1410 2 -1417
-5z"/>
</g>
</svg>
