<?xml version="1.0" standalone="no"?>
<!DOCTYPE svg PUBLIC "-//W3C//DTD SVG 20010904//EN"
 "http://www.w3.org/TR/2001/REC-SVG-20010904/DTD/svg10.dtd">
<svg version="1.0" xmlns="http://www.w3.org/2000/svg"
 width="260.000000pt" height="260.000000pt" viewBox="0 0 260.000000 260.000000"
 preserveAspectRatio="xMidYMid meet">
<metadata>
Created by potrace 1.11, written by Peter Selinger 2001-2013
</metadata>
<g transform="translate(0.000000,260.000000) scale(0.100000,-0.100000)"
fill="#000000" stroke="none">
<path d="M504 1821 c-120 -34 -202 -110 -232 -215 -12 -43 -5 -191 11 -226 39
-89 135 -156 297 -209 74 -24 128 -54 136 -76 4 -8 3 -26 0 -40 -18 -71 -186
-76 -352 -9 -36 14 -67 24 -69 22 -2 -2 -7 -30 -10 -63 -4 -33 -9 -62 -10 -65
-2 -3 -6 -30 -10 -60 l-6 -55 43 -17 c97 -39 171 -52 293 -52 105 1 129 4 188
27 110 43 175 108 204 207 32 107 11 223 -52 297 -38 44 -122 93 -223 128
-144 50 -178 75 -165 123 10 39 49 51 154 47 52 -2 105 -6 119 -9 88 -21 93
-20 87 5 -3 13 -16 69 -28 124 -12 55 -25 104 -30 109 -13 15 -34 17 -164 21
-92 3 -134 0 -181 -14z"/>
<path d="M959 1822 c-25 -3 -26 -5 -18 -35 5 -18 30 -122 55 -232 92 -401 155
-671 168 -725 l13 -55 177 -2 c145 -1 176 1 177 13 1 8 2 17 3 22 1 4 5 29 10
55 4 27 9 59 12 70 2 12 22 126 44 252 22 127 42 241 44 255 3 14 5 36 5 49 1
35 10 22 16 -25 3 -21 8 -55 11 -74 4 -19 8 -44 10 -55 1 -11 17 -101 34 -200
17 -99 33 -193 36 -210 4 -27 16 -89 20 -107 1 -5 2 -17 3 -28 1 -19 8 -19
178 -17 l178 2 11 50 c6 28 28 118 47 200 20 83 38 161 40 175 3 14 12 52 20
85 9 33 18 71 20 85 3 14 10 43 15 65 6 22 13 51 16 65 2 14 18 86 36 160 17
74 31 141 33 149 2 11 -24 14 -136 15 -82 1 -142 -3 -147 -9 -5 -5 -11 -28
-14 -50 -4 -23 -9 -52 -11 -65 -3 -14 -7 -38 -9 -55 -3 -16 -7 -43 -10 -60 -3
-16 -8 -46 -11 -65 -3 -19 -10 -57 -15 -85 -5 -27 -11 -66 -14 -85 -6 -44 -17
-107 -21 -129 -2 -9 -6 -42 -10 -74 -4 -31 -10 -57 -14 -57 -4 0 -13 33 -19
73 -6 39 -14 83 -17 97 -6 32 -63 340 -75 405 -5 28 -13 71 -18 97 -5 26 -7
50 -4 53 3 3 -8 5 -24 6 -37 1 -264 1 -285 0 -13 -1 -21 -26 -39 -123 -11 -68
-25 -143 -30 -168 -18 -93 -40 -206 -46 -245 -3 -22 -7 -44 -8 -50 -2 -5 -7
-32 -11 -60 -5 -27 -10 -53 -11 -57 -1 -5 -2 -18 -3 -30 -3 -53 -9 -21 -56
287 -4 22 -8 51 -11 65 -19 113 -55 335 -56 355 -1 14 -9 25 -18 26 -56 3
-250 3 -271 1z"/>
</g>
</svg>
