<?xml version="1.0" encoding="utf-8"?><svg xmlns="http://www.w3.org/2000/svg" xmlns:xlink="http://www.w3.org/1999/xlink"><symbol viewBox="0 0 48 48" id="email" xmlns="http://www.w3.org/2000/svg"><circle cx="24" cy="23.998" r="24" fill="#58595b"/><g fill="#fff"><path d="M37.041 19.099c-.047-.038-.09-.054-.133-.072v-7.505a.394.394 0 0 0-.387-.397h-9.578c-.025-.028-.043-.056-.08-.086l-2.369-1.875a.837.837 0 0 0-.992 0l-2.367 1.875c-.039.03-.057.058-.08.086h-9.56a.392.392 0 0 0-.385.397v7.497a.477.477 0 0 0-.152.08l-1.463 1.158c-.272.215-.495.681-.495 1.034v17.066c0 .354.281.643.623.643h28.75a.636.636 0 0 0 .627-.643V21.291c0-.353-.223-.819-.496-1.035l-1.463-1.157zm-2.195 4.74a.73.73 0 0 1-.34.584l-10.16 5.62a.79.79 0 0 1-.678 0l-10.158-5.62a.732.732 0 0 1-.338-.584V13.226a.39.39 0 0 1 .383-.397h20.904c.211 0 .387.178.387.397v10.613z"/><path d="M15.473 16.225h6v6.167h-6zM23.209 16.225h10.158v1.137H23.209zM23.209 18.538h10.158v1.136H23.209zM23.209 20.85h4.148v1.138h-4.148z"/></g></symbol><symbol viewBox="0 0 48 48" id="email-red" xmlns="http://www.w3.org/2000/svg"><circle cx="24" cy="23.998" r="24" fill="red"/><g fill="#fff"><path d="M37.041 19.099c-.047-.038-.09-.054-.133-.072v-7.505a.394.394 0 0 0-.387-.397h-9.578c-.025-.028-.043-.056-.08-.086l-2.369-1.875a.837.837 0 0 0-.992 0l-2.367 1.875c-.039.03-.057.058-.08.086h-9.56a.392.392 0 0 0-.385.397v7.497a.477.477 0 0 0-.152.08l-1.463 1.158c-.272.215-.495.681-.495 1.034v17.066c0 .354.281.643.623.643h28.75a.636.636 0 0 0 .627-.643V21.291c0-.353-.223-.819-.496-1.035l-1.463-1.157zm-2.195 4.74a.73.73 0 0 1-.34.584l-10.16 5.62a.79.79 0 0 1-.678 0l-10.158-5.62a.732.732 0 0 1-.338-.584V13.226a.39.39 0 0 1 .383-.397h20.904c.211 0 .387.178.387.397v10.613z"/><path d="M15.473 16.225h6v6.167h-6zM23.209 16.225h10.158v1.137H23.209zM23.209 18.538h10.158v1.136H23.209zM23.209 20.85h4.148v1.138h-4.148z"/></g></symbol><symbol viewBox="0 0 48 48" id="facebook" xmlns="http://www.w3.org/2000/svg"><path d="M48.001 24c0 13.254-10.746 24-23.998 24C10.745 48-.001 37.254-.001 24c0-13.256 10.746-24 24.004-24 13.252 0 23.998 10.744 23.998 24z" fill="#58595b"/><path d="M19.999 39h6V24h4.453l.547-6h-4.768v-2.399c0-1.169.779-1.441 1.326-1.441h3.366V9.019L26.288 9c-5.145 0-6.314 3.834-6.314 6.288V18h-2.975v6h3v15z" fill="#fff"/></symbol><symbol viewBox="0 0 48 48" id="facebook-red" xmlns="http://www.w3.org/2000/svg"><path d="M48.001 24c0 13.254-10.746 24-23.998 24C10.745 48-.001 37.254-.001 24c0-13.256 10.746-24 24.004-24 13.252 0 23.998 10.744 23.998 24z" fill="red"/><path d="M19.999 39h6V24h4.453l.547-6h-4.768v-2.399c0-1.169.779-1.441 1.326-1.441h3.366V9.019L26.288 9c-5.145 0-6.314 3.834-6.314 6.288V18h-2.975v6h3v15z" fill="#fff"/></symbol><symbol viewBox="0 0 48 48" id="instagram" xmlns="http://www.w3.org/2000/svg"><defs><style>.ecls-1{fill:#595a5c}.ecls-2{fill:#fff}</style></defs><g id="eLayer_2" data-name="Layer 2"><g id="eLayer_1-2" data-name="Layer 1"><circle class="ecls-1" cx="24" cy="24" r="24"/><path class="ecls-2" d="M33.2 9H14.8A5.8 5.8 0 0 0 9 14.8v18.4a5.8 5.8 0 0 0 5.8 5.8h18.4a5.8 5.8 0 0 0 5.8-5.8V14.8A5.8 5.8 0 0 0 33.2 9zm1.67 3.46h.66v5.09h-5.07v-5.09zm-15.15 8.46a5.27 5.27 0 1 1-1 3.08 5.27 5.27 0 0 1 1-3.08zM36.08 33.2a2.88 2.88 0 0 1-2.88 2.88H14.8a2.88 2.88 0 0 1-2.88-2.88V20.92h4.48a8.09 8.09 0 0 0-.6 3.08 8.2 8.2 0 1 0 15.8-3.08h4.48z"/></g></g></symbol><symbol viewBox="0 0 48 48" id="instagram-red" xmlns="http://www.w3.org/2000/svg"><defs><style>.fcls-1{fill:red}.fcls-2{fill:#fff}</style></defs><g id="fLayer_2" data-name="Layer 2"><g id="fLayer_1-2" data-name="Layer 1"><circle class="fcls-1" cx="24" cy="24" r="24"/><path class="fcls-2" d="M33.2 9H14.8A5.8 5.8 0 0 0 9 14.8v18.4a5.8 5.8 0 0 0 5.8 5.8h18.4a5.8 5.8 0 0 0 5.8-5.8V14.8A5.8 5.8 0 0 0 33.2 9zm1.67 3.46h.66v5.09h-5.07v-5.09zm-15.15 8.46a5.27 5.27 0 1 1-1 3.08 5.27 5.27 0 0 1 1-3.08zM36.08 33.2a2.88 2.88 0 0 1-2.88 2.88H14.8a2.88 2.88 0 0 1-2.88-2.88V20.92h4.48a8.09 8.09 0 0 0-.6 3.08 8.2 8.2 0 1 0 15.8-3.08h4.48z"/></g></g></symbol><symbol viewBox="0 0 48 48" id="more" xmlns="http://www.w3.org/2000/svg"><circle cx="24" cy="23.998" r="24" fill="#58595b"/><path fill="#fff" d="M39 21H27V9h-6v12H9v6h12v12h6V27h12z"/></symbol><symbol viewBox="0 0 48 48" id="more-red" xmlns="http://www.w3.org/2000/svg"><circle cx="24" cy="23.998" r="24" fill="red"/><path fill="#fff" d="M39 21H27V9h-6v12H9v6h12v12h6V27h12z"/></symbol><symbol viewBox="0 0 48 48" id="placeholder" xmlns="http://www.w3.org/2000/svg"><circle cx="24" cy="24" r="24" fill="#58595b"/><path d="M29.362 9.117s2.066-.196 3.684.868c.587-.028 1.061.225 1.368.785.308.56.865 1.904.419 2.717-.139.168-.447-.505-.447-.505s-.223.813-.642 1.12c.056 1.68-.614 2.856-.809 3.249-.084.224-.028.421.055.645.084.224 1.201 4.173 1.145 5.489-.056 1.316-.726 2.885-1.256 3.417.111 1.092-.391 2.017-.642 2.465-.251.448-.809 2.128-.949 2.912-.14.785-.195 1.625-.028 1.877.168.252.921 1.036.865 1.428-.056.392-.865.84-1.256.84s-1.201-.252-1.396-.785c-.195-.532-.223-1.456-.083-1.988.139-.533 1.089-4.425.531-6.722-1.368.616-3.657.589-3.657.589s-.391 2.044-.865 3.22c-.167.28-.14 2.185-.14 3.389 0 1.204.419 3.081.419 3.081s.586.421.503.952c-.084.532-.755.84-1.341.84s-1.367-.448-1.367-1.176.111-2.38.055-3.585c-.055-1.204-.027-1.988-.223-2.745-.196-.756-.754-2.745-.81-4.285-.195 0-.391-.14-.391-.14s-.921 1.064-1.563 1.68c.084.42.307 1.176.307 1.344s.168.308.447.42c.279.113 1.144.589 1.116 1.064-.028.476-1.117.56-2.066.14-.223-.112-1.033-2.828-1.144-3.193-.112-.364-.196-.56-.056-.868.139-.307.53-1.316.475-1.904-.056-.588-1.145-1.512-1.87-1.512-.558 0-1.411.856-2.038 1.344-.754.589-1.619 1.484-1.842 1.624-.224.141-1.982 3.333-2.317 4.257-.139.364-.418 2.185-1.897 2.128-.67-.056-1.284-.784.614-2.1.482-1.113 1.152-2.269 1.193-2.5.042-.231.544-3.109 1.382-5.839.837-2.73 2.073-4.033 2.302-4.222.189-.146.293-.231.105-.336-.188-.105-2.177-1.807-1.8-5.419.063-.42.251-.315.377.651s.9 3.235 2.617 3.949c.167.063 1.403-.882 7.704-1.344.042-1.113.21-2.29.21-2.29s-.44-.336-.503-1.008c-.209.337-.335.421-.607.378-.272-.042-.251-1.344-.188-2.268.063-.924 1.131-1.324 1.529-1.365.523-.273 1.088-.231 1.088-.231s.961-.98 3.683-.532z" fill="#fff"/></symbol><symbol viewBox="0 0 48 48" id="placeholder-red" xmlns="http://www.w3.org/2000/svg"><circle cx="24" cy="24" r="24" fill="red"/><path d="M29.362 9.117s2.066-.196 3.684.868c.587-.028 1.061.225 1.368.785.308.56.865 1.904.419 2.717-.139.168-.447-.505-.447-.505s-.223.813-.642 1.12c.056 1.68-.614 2.856-.809 3.249-.084.224-.028.421.055.645.084.224 1.201 4.173 1.145 5.489-.056 1.316-.726 2.885-1.256 3.417.111 1.092-.391 2.017-.642 2.465-.251.448-.809 2.128-.949 2.912-.14.785-.195 1.625-.028 1.877.168.252.921 1.036.865 1.428-.056.392-.865.84-1.256.84s-1.201-.252-1.396-.785c-.195-.532-.223-1.456-.083-1.988.139-.533 1.089-4.425.531-6.722-1.368.616-3.657.589-3.657.589s-.391 2.044-.865 3.22c-.167.28-.14 2.185-.14 3.389 0 1.204.419 3.081.419 3.081s.586.421.503.952c-.084.532-.755.84-1.341.84s-1.367-.448-1.367-1.176.111-2.38.055-3.585c-.055-1.204-.027-1.988-.223-2.745-.196-.756-.754-2.745-.81-4.285-.195 0-.391-.14-.391-.14s-.921 1.064-1.563 1.68c.084.42.307 1.176.307 1.344s.168.308.447.42c.279.113 1.144.589 1.116 1.064-.028.476-1.117.56-2.066.14-.223-.112-1.033-2.828-1.144-3.193-.112-.364-.196-.56-.056-.868.139-.307.53-1.316.475-1.904-.056-.588-1.145-1.512-1.87-1.512-.558 0-1.411.856-2.038 1.344-.754.589-1.619 1.484-1.842 1.624-.224.141-1.982 3.333-2.317 4.257-.139.364-.418 2.185-1.897 2.128-.67-.056-1.284-.784.614-2.1.482-1.113 1.152-2.269 1.193-2.5.042-.231.544-3.109 1.382-5.839.837-2.73 2.073-4.033 2.302-4.222.189-.146.293-.231.105-.336-.188-.105-2.177-1.807-1.8-5.419.063-.42.251-.315.377.651s.9 3.235 2.617 3.949c.167.063 1.403-.882 7.704-1.344.042-1.113.21-2.29.21-2.29s-.44-.336-.503-1.008c-.209.337-.335.421-.607.378-.272-.042-.251-1.344-.188-2.268.063-.924 1.131-1.324 1.529-1.365.523-.273 1.088-.231 1.088-.231s.961-.98 3.683-.532z" fill="#fff"/></symbol><symbol viewBox="0 0 48 48" id="print" xmlns="http://www.w3.org/2000/svg"><defs><style>.kcls-1{fill:#595a5c}.kcls-2{fill:#fff}.kcls-3{fill:none;stroke:#fff;stroke-miterlimit:10;stroke-width:2px}</style></defs><title>print</title><g id="kLayer_2" data-name="Layer 2"><g id="kLayer_1-2" data-name="Layer 1"><circle class="kcls-1" cx="24" cy="24" r="24"/><path class="kcls-2" d="M13.35 10.06h21.29v16.46H13.35z"/><path class="kcls-3" d="M10.58 26.52h26.84a2 2 0 0 1 2 2v9.24H8.58v-9.24a2 2 0 0 1 2-2z"/><path class="kcls-1" d="M21.54 13.45h10.25v.89H21.54zM21.54 15.27h10.25v.89H21.54zM21.54 17.08h4.18v.89h-4.18zM16.21 19.48h15.58v.89H16.21zM16.21 21.3h15.58v.89H16.21zM16.21 23.11h15.58V24H16.21zM16.21 13.45h4.52v4.52h-4.52z"/></g></g></symbol><symbol viewBox="0 0 48 48" id="print-red" xmlns="http://www.w3.org/2000/svg"><defs><style>.lcls-1{fill:#ff000}.lcls-2{fill:#fff}.lcls-3{fill:none;stroke:#fff;stroke-miterlimit:10;stroke-width:2px}</style></defs><title>print</title><g id="lLayer_2" data-name="Layer 2"><g id="lLayer_1-2" data-name="Layer 1"><circle class="lcls-1" cx="24" cy="24" r="24"/><path class="lcls-2" d="M13.35 10.06h21.29v16.46H13.35z"/><path class="lcls-3" d="M10.58 26.52h26.84a2 2 0 0 1 2 2v9.24H8.58v-9.24a2 2 0 0 1 2-2z"/><path class="lcls-1" d="M21.54 13.45h10.25v.89H21.54zM21.54 15.27h10.25v.89H21.54zM21.54 17.08h4.18v.89h-4.18zM16.21 19.48h15.58v.89H16.21zM16.21 21.3h15.58v.89H16.21zM16.21 23.11h15.58V24H16.21zM16.21 13.45h4.52v4.52h-4.52z"/></g></g></symbol><symbol viewBox="0 0 48 48" id="reply" xmlns="http://www.w3.org/2000/svg"><defs><style>.mcls-1{fill:#595a5c}.mcls-2{fill:#fff}</style></defs><title>reply</title><g id="mLayer_2" data-name="Layer 2"><g id="mLayer_1-2" data-name="Layer 1"><circle class="mcls-1" cx="24" cy="24" r="24"/><rect class="mcls-2" x="9" y="11.91" width="30" height="18.89" rx="2" ry="2"/><circle class="mcls-1" cx="15" cy="21.36" r="3"/><circle class="mcls-1" cx="24" cy="21.36" r="3"/><circle class="mcls-1" cx="33" cy="21.36" r="3"/><path class="mcls-2" d="M11.62 27.61L9 37.28l10.25-6.8-7.63-2.87z"/></g></g></symbol><symbol viewBox="0 0 48 48" id="reply-red" xmlns="http://www.w3.org/2000/svg"><defs><style>.ncls-1{fill:red}.ncls-2{fill:#fff}</style></defs><title>reply</title><g id="nLayer_2" data-name="Layer 2"><g id="nLayer_1-2" data-name="Layer 1"><circle class="ncls-1" cx="24" cy="24" r="24"/><rect class="ncls-2" x="9" y="11.91" width="30" height="18.89" rx="2" ry="2"/><circle class="ncls-1" cx="15" cy="21.36" r="3"/><circle class="ncls-1" cx="24" cy="21.36" r="3"/><circle class="ncls-1" cx="33" cy="21.36" r="3"/><path class="ncls-2" d="M11.62 27.61L9 37.28l10.25-6.8-7.63-2.87z"/></g></g></symbol><symbol viewBox="0 0 48 48" id="rss" xmlns="http://www.w3.org/2000/svg"><circle cx="24" cy="23.998" r="24" fill="#58595b"/><g fill="#fff"><ellipse cx="12.998" cy="34.982" rx="4" ry="3.982"/><path d="M23.03 38.992h5.773c0-10.918-8.881-19.799-19.797-19.799v5.75c3.745 0 7.267 1.457 9.914 4.109a13.967 13.967 0 0 1 4.11 9.94z"/><path d="M33.229 39H39C39 22.457 25.548 9 9.016 9v5.75c13.35 0 24.213 10.879 24.213 24.25z"/></g></symbol><symbol viewBox="0 0 48 48" id="rss-red" xmlns="http://www.w3.org/2000/svg"><circle cx="24" cy="23.998" r="24" fill="red"/><g fill="#fff"><ellipse cx="12.998" cy="34.982" rx="4" ry="3.982"/><path d="M23.03 38.992h5.773c0-10.918-8.881-19.799-19.797-19.799v5.75c3.745 0 7.267 1.457 9.914 4.109a13.967 13.967 0 0 1 4.11 9.94z"/><path d="M33.229 39H39C39 22.457 25.548 9 9.016 9v5.75c13.35 0 24.213 10.879 24.213 24.25z"/></g></symbol><symbol viewBox="0 0 48 48" id="twitter" xmlns="http://www.w3.org/2000/svg"><circle cx="24" cy="24" r="24.001" fill="#58595b"/><path d="M38.173 12.442a12.442 12.442 0 0 1-3.91 1.472A6.186 6.186 0 0 0 29.771 12c-3.398 0-6.154 2.713-6.154 6.059 0 .475.055.936.158 1.38a17.57 17.57 0 0 1-12.686-6.33 5.963 5.963 0 0 0-.834 3.046c0 2.101 1.089 3.956 2.739 5.042a6.226 6.226 0 0 1-2.788-.757v.076c0 2.935 2.122 5.384 4.938 5.942a6.28 6.28 0 0 1-2.781.103c.785 2.406 3.057 4.159 5.75 4.208a12.476 12.476 0 0 1-7.645 2.594c-.498 0-.986-.029-1.469-.085A17.634 17.634 0 0 0 18.435 36c11.322 0 17.512-9.231 17.512-17.238a17 17 0 0 0-.016-.784 12.385 12.385 0 0 0 3.07-3.137 12.423 12.423 0 0 1-3.535.954 6.096 6.096 0 0 0 2.707-3.353z" fill="#fff"/></symbol><symbol viewBox="0 0 48 48" id="twitter-red" xmlns="http://www.w3.org/2000/svg"><circle cx="24" cy="24" r="24.001" fill="red"/><path d="M38.173 12.442a12.442 12.442 0 0 1-3.91 1.472A6.186 6.186 0 0 0 29.771 12c-3.398 0-6.154 2.713-6.154 6.059 0 .475.055.936.158 1.38a17.57 17.57 0 0 1-12.686-6.33 5.963 5.963 0 0 0-.834 3.046c0 2.101 1.089 3.956 2.739 5.042a6.226 6.226 0 0 1-2.788-.757v.076c0 2.935 2.122 5.384 4.938 5.942a6.28 6.28 0 0 1-2.781.103c.785 2.406 3.057 4.159 5.75 4.208a12.476 12.476 0 0 1-7.645 2.594c-.498 0-.986-.029-1.469-.085A17.634 17.634 0 0 0 18.435 36c11.322 0 17.512-9.231 17.512-17.238a17 17 0 0 0-.016-.784 12.385 12.385 0 0 0 3.07-3.137 12.423 12.423 0 0 1-3.535.954 6.096 6.096 0 0 0 2.707-3.353z" fill="#fff"/></symbol></svg>